<svg xmlns="http://www.w3.org/2000/svg" width="22" height="22" viewBox="0 0 22 22">
  <defs>
    <style>
      .cls-1 {
        fill: #9497b3;
        fill-rule: evenodd;
      }
    </style>
  </defs>
  <path id="Фигура_6" data-name="Фигура 6" class="cls-1" d="M506.417,1430.83a0.918,0.918,0,0,1-.917.92h-0.917a0.915,0.915,0,1,1,0-1.83H505.5A0.915,0.915,0,0,1,506.417,1430.83Zm3.666-.91h-0.916a0.915,0.915,0,1,0,0,1.83h0.916A0.915,0.915,0,1,0,510.083,1429.92Zm-4.583,3.66h-0.917a0.92,0.92,0,0,0,0,1.84H505.5A0.92,0.92,0,0,0,505.5,1433.58Zm4.583,0h-0.916a0.92,0.92,0,0,0,0,1.84h0.916A0.92,0.92,0,0,0,510.083,1433.58Zm-4.583-11h-0.917a0.92,0.92,0,0,0,0,1.84H505.5A0.92,0.92,0,0,0,505.5,1422.58Zm4.583,0h-0.916a0.92,0.92,0,0,0,0,1.84h0.916A0.92,0.92,0,0,0,510.083,1422.58Zm-4.583,3.67h-0.917a0.915,0.915,0,1,0,0,1.83H505.5A0.915,0.915,0,1,0,505.5,1426.25Zm4.583,0h-0.916a0.915,0.915,0,1,0,0,1.83h0.916A0.915,0.915,0,1,0,510.083,1426.25ZM522,1427.17v8.25a4.584,4.584,0,0,1-4.583,4.58H504.583a4.584,4.584,0,0,1-4.583-4.58v-12.84a4.584,4.584,0,0,1,4.583-4.58h5.5a4.585,4.585,0,0,1,4.584,4.58h2.75A4.6,4.6,0,0,1,522,1427.17Zm-17.417,11h8.25v-15.59a2.749,2.749,0,0,0-2.75-2.75h-5.5a2.749,2.749,0,0,0-2.75,2.75v12.84A2.749,2.749,0,0,0,504.583,1438.17Zm15.584-11a2.75,2.75,0,0,0-2.75-2.75h-2.75v13.75h2.75a2.75,2.75,0,0,0,2.75-2.75v-8.25Zm-2.75,2.75a0.915,0.915,0,1,0,.916.91A0.915,0.915,0,0,0,517.417,1429.92Zm0,3.66a0.92,0.92,0,1,0,.916.92A0.917,0.917,0,0,0,517.417,1433.58Zm0-7.33a0.915,0.915,0,1,0,.916.92A0.917,0.917,0,0,0,517.417,1426.25Z" transform="translate(-500 -1418)"/>
</svg>
