<svg xmlns="http://www.w3.org/2000/svg" width="14" height="16.97" viewBox="0 0 14 16.97">
  <defs>
    <style>
      .cls-1 {
        fill: #9b2719;
        fill-rule: evenodd;
      }
    </style>
  </defs>
  <path id="Фигура_12" data-name="Фигура 12" class="cls-1" d="M659.5,1386h-7.006a3.3,3.3,0,0,0-3.5,3.05v11.96a2.1,2.1,0,0,0,2.232,1.94,2.386,2.386,0,0,0,1.618-.61l3.128-2.89,3.193,2.92a2.476,2.476,0,0,0,3.152.06,1.836,1.836,0,0,0,.689-1.4v-11.98A3.3,3.3,0,0,0,659.5,1386Zm1.592,15.03a0.3,0.3,0,0,1-.319.27,0.362,0.362,0,0,1-.229-0.08l-3.885-3.55a1.011,1.011,0,0,0-.694-0.26h0a1.048,1.048,0,0,0-.691.26l-3.822,3.53a0.339,0.339,0,0,1-.35.06,0.254,0.254,0,0,1-.2-0.25v-11.96a1.5,1.5,0,0,1,1.592-1.38H659.5a1.5,1.5,0,0,1,1.592,1.38v11.98Z" transform="translate(-649 -1386)"/>
</svg>
