<svg xmlns="http://www.w3.org/2000/svg" width="23" height="23" viewBox="0 0 23 23">
  <defs>
    <style>
      .cls-1 {
        fill: #9497b3;
        fill-rule: evenodd;
      }
    </style>
  </defs>
  <path id="Фигура_7" data-name="Фигура 7" class="cls-1" d="M649.042,1436.17a0.957,0.957,0,0,0-.959.95,1.614,1.614,0,0,1-1.677.96,1.932,1.932,0,0,1-1.526-.66,1.269,1.269,0,0,1,.122-0.17,11.656,11.656,0,0,0,3.025-5.93,2.881,2.881,0,0,0-1.86-3.22v-2.48a3.836,3.836,0,0,0-3.834-3.83v-0.96a3.833,3.833,0,0,0-7.666,0v0.96a3.836,3.836,0,0,0-3.834,3.83v2.47a2.869,2.869,0,0,0-1.89,3.23,11.71,11.71,0,0,0,3.055,5.93,0.939,0.939,0,0,1,.127.18,1.9,1.9,0,0,1-1.531.65,1.631,1.631,0,0,1-1.677-.96,0.959,0.959,0,0,0-1.917,0c0,1.56,1.646,2.88,3.594,2.88a4.016,4.016,0,0,0,2.648-.96,692.883,692.883,0,0,0,10.529,0,3.974,3.974,0,0,0,2.631.96c1.952,0,3.6-1.32,3.6-2.88A0.957,0.957,0,0,0,649.042,1436.17Zm-12.459-15.34a1.917,1.917,0,0,1,3.834,0v0.96h-3.834v-0.96Zm-1.916,2.88h7.666a1.916,1.916,0,0,1,1.917,1.91v1.84l-4.842-1.58a2.811,2.811,0,0,0-1.812,0l-4.846,1.58v-1.84A1.916,1.916,0,0,1,634.667,1423.71Zm1.2,14.37a1.846,1.846,0,0,1-1.64-.81,5.027,5.027,0,0,0-.813-1.32,9.765,9.765,0,0,1-2.579-4.95,0.979,0.979,0,0,1,.635-1.11l6.074-1.98v9.21A1.615,1.615,0,0,1,635.865,1438.08Zm5.27,0a1.632,1.632,0,0,1-1.677-.96v-9.21l6.043,1.98a0.98,0.98,0,0,1,.638,1.11,9.745,9.745,0,0,1-2.551,4.95,4.8,4.8,0,0,0-.813,1.33A1.861,1.861,0,0,1,641.135,1438.08Z" transform="translate(-627 -1417)"/>
</svg>
