<svg xmlns="http://www.w3.org/2000/svg" width="21" height="21" viewBox="0 0 21 21">
  <defs>
    <style>
      .cls-1 {
        fill: #3b45a9;
        fill-rule: evenodd;
      }
    </style>
  </defs>
  <path id="Фигура_11" data-name="Фигура 11" class="cls-1" d="M407.805,14400.7a1.314,1.314,0,1,1-1.314-1.3A1.319,1.319,0,0,1,407.805,14400.7Zm9.195,10.9v-5.8a10.723,10.723,0,0,0-9.777-10.8,10.546,10.546,0,0,0-11.217,9.8,9.445,9.445,0,0,0,0,1.4c0.388,5.6,5.3,9.8,11.432,9.8h5.182A4.412,4.412,0,0,0,417,14411.6Zm-9.9-14.8a8.879,8.879,0,0,1,8.145,9v5.8a2.574,2.574,0,0,1-2.628,2.6h-5.182c-5.284,0-9.355-3.4-9.683-8.1a8.687,8.687,0,0,1,8.107-9.3H407.1Zm1.139,13.9v-5.2a1.689,1.689,0,0,0-1.752-1.7h-0.876a0.8,0.8,0,0,0-.875.8,0.886,0.886,0,0,0,.875.9h0.876v5.2A0.876,0.876,0,1,0,408.243,14410.7Z" transform="translate(-396 -14395)"/>
</svg>
