<svg xmlns="http://www.w3.org/2000/svg" width="17" height="24" viewBox="0 0 17 24">
  <defs>
    <style>
      .cls-1 {
        fill: #3b45a9;
        fill-rule: evenodd;
      }
    </style>
  </defs>
  <path id="Фигура_6" data-name="Фигура 6" class="cls-1" d="M1493.28,16064h-7.56a4.846,4.846,0,0,0-4.72,5v18a1.007,1.007,0,0,0,.95,1,1.081,1.081,0,0,0,.53-0.2l1.99-1.4,1.99,1.4a0.737,0.737,0,0,0,1.06,0l1.99-1.4,1.98,1.4a0.749,0.749,0,0,0,1.07,0l1.98-1.4,1.98,1.4a0.968,0.968,0,0,0,1.32-.2,1.347,1.347,0,0,0,.16-0.6v-18A4.846,4.846,0,0,0,1493.28,16064Zm2.83,21.1-1.04-.8a1.029,1.029,0,0,0-1.07,0l-1.98,1.5-1.98-1.5a1.029,1.029,0,0,0-1.07,0l-1.99,1.5-1.98-1.5a1.011,1.011,0,0,0-1.06,0l-1.05.8V16069a2.894,2.894,0,0,1,2.83-3h7.56a2.894,2.894,0,0,1,2.83,3v16.1Zm-10.39-13.1h7.56a0.942,0.942,0,0,1,.94,1h0a1.006,1.006,0,0,1-.94,1h-7.56a1.006,1.006,0,0,1-.94-1h0A0.942,0.942,0,0,1,1485.72,16072Zm0,4h5.67a0.942,0.942,0,0,1,.94,1h0a1.006,1.006,0,0,1-.94,1h-5.67a1.006,1.006,0,0,1-.94-1h0A0.942,0.942,0,0,1,1485.72,16076Z" transform="translate(-1481 -16064)"/>
</svg>
