<svg xmlns="http://www.w3.org/2000/svg" width="30" height="31" viewBox="0 0 30 31">
  <defs>
    <style>
      .cls-1 {
        fill: #fff;
        fill-rule: evenodd;
      }
    </style>
  </defs>
  <path id="Фигура_5" data-name="Фигура 5" class="cls-1" d="M902.938,946.438l-1.006,5.624a6.421,6.421,0,0,1-6.306,5.313H880.352a3.845,3.845,0,0,0,3.613,2.583h13.382a1.292,1.292,0,0,1,0,2.584H883.965a6.425,6.425,0,0,1-6.363-5.706l-1.764-15.112a1.284,1.284,0,0,0-1.272-1.141h-0.285a1.292,1.292,0,0,1,0-2.583h0.285a3.856,3.856,0,0,1,3.816,3.421l0.054,0.454h20.718a3.819,3.819,0,0,1,2.951,1.391A3.887,3.887,0,0,1,902.938,946.438Zm-3.784-1.98H878.738l1.206,10.334h15.682a3.855,3.855,0,0,0,3.79-3.188l1.007-5.624a1.268,1.268,0,0,0,.02-0.238A1.287,1.287,0,0,0,899.154,944.458ZM881.97,963.833a2.584,2.584,0,1,1-2.563,2.584A2.573,2.573,0,0,1,881.97,963.833Zm12.815,0a2.584,2.584,0,1,1-2.563,2.584A2.573,2.573,0,0,1,894.785,963.833Z" transform="translate(-873 -938)"/>
</svg>
