<svg xmlns="http://www.w3.org/2000/svg" width="22" height="19" viewBox="0 0 22 19">
  <defs>
    <style>
      .cls-1 {
        fill: #9497b3;
        fill-rule: evenodd;
      }
    </style>
  </defs>
  <path id="Фигура_12" data-name="Фигура 12" class="cls-1" d="M684.417,11816H671.583a4.435,4.435,0,0,0-4.583,4.3v10.4a4.435,4.435,0,0,0,4.583,4.3h12.834a4.435,4.435,0,0,0,4.583-4.3v-10.4A4.435,4.435,0,0,0,684.417,11816Zm-12.834,1.7h12.834a2.785,2.785,0,0,1,2.548,1.7l-7.02,6.6a2.9,2.9,0,0,1-3.89,0l-7.02-6.6A2.785,2.785,0,0,1,671.583,11817.7Zm12.834,15.6H671.583a2.7,2.7,0,0,1-2.75-2.6v-9.1l5.926,5.6a4.757,4.757,0,0,0,6.482,0l5.926-5.6v9.1A2.7,2.7,0,0,1,684.417,11833.3Z" transform="translate(-667 -11816)"/>
</svg>
