<svg xmlns="http://www.w3.org/2000/svg" width="14" height="17" viewBox="0 0 14 17">
  <defs>
    <style>
      .cls-1 {
        fill: #9b2719;
        fill-rule: evenodd;
      }
    </style>
  </defs>
  <path id="Фигура_12" data-name="Фигура 12" class="cls-1" d="M841.5,12541h-7.006a3.331,3.331,0,0,0-3.5,3.1v11.9a2.054,2.054,0,0,0,2.232,1.9,2.331,2.331,0,0,0,1.618-.6l3.128-2.8,3.193,2.9a2.489,2.489,0,0,0,3.152,0,1.641,1.641,0,0,0,.689-1.4v-11.9A3.33,3.33,0,0,0,841.5,12541Zm1.593,15a0.291,0.291,0,0,1-.32.3,0.223,0.223,0,0,1-.229-0.1l-3.885-3.5a0.924,0.924,0,0,0-.694-0.3h0a0.916,0.916,0,0,0-.691.3l-3.822,3.5a0.436,0.436,0,0,1-.349.1,0.412,0.412,0,0,1-.2-0.3v-11.9a1.488,1.488,0,0,1,1.592-1.4H841.5a1.488,1.488,0,0,1,1.593,1.4v11.9Z" transform="translate(-831 -12541)"/>
</svg>
