<svg xmlns="http://www.w3.org/2000/svg" width="23.093" height="23.2" viewBox="0 0 23.093 23.2">
  <defs>
    <style>
      .cls-1 {
        fill: #9497b3;
        fill-rule: evenodd;
      }
    </style>
  </defs>
  <path id="Фигура_11" data-name="Фигура 11" class="cls-1" d="M409.445,16013.9a0.931,0.931,0,0,1,.964-0.9,9.626,9.626,0,0,1,9.64,9.6,0.965,0.965,0,1,1-1.928,0,7.68,7.68,0,0,0-7.712-7.7A1.017,1.017,0,0,1,409.445,16013.9Zm0.964,4.8a3.913,3.913,0,0,1,3.856,3.9,0.965,0.965,0,1,0,1.928,0,5.8,5.8,0,0,0-5.784-5.8,0.953,0.953,0,0,0-.964,1A0.931,0.931,0,0,0,410.409,16018.7Zm8.766,10.4a2.964,2.964,0,0,1,0,4.2l-0.877,1c-7.9,7.6-27.11-11.6-19.668-19.6l1.109-.9a3.05,3.05,0,0,1,4.172,0c0.03,0.1,1.816,2.4,1.816,2.4a2.953,2.953,0,0,1-.007,4.1l-1.116,1.4a12.583,12.583,0,0,0,6.682,6.7l1.412-1.1a2.993,2.993,0,0,1,4.127,0S419.145,16029.1,419.175,16029.1Zm-1.327,1.4s-2.307-1.8-2.337-1.8a1.079,1.079,0,0,0-1.493,0c-0.026,0-1.97,1.6-1.97,1.6a1.046,1.046,0,0,1-.944.1,14.663,14.663,0,0,1-8.5-8.5,0.836,0.836,0,0,1,.14-0.9s1.549-2,1.576-2a1.07,1.07,0,0,0,0-1.5c-0.03,0-1.805-2.3-1.805-2.3a1.033,1.033,0,0,0-1.456,0l-1.109,1c-5.439,6.5,11.212,22.2,16.943,16.8l0.878-1a1.08,1.08,0,0,0,.082-1.5h0Z" transform="translate(-396.969 -16012.9)"/>
</svg>
