<svg xmlns="http://www.w3.org/2000/svg" width="25" height="25" viewBox="0 0 25 25">
  <defs>
    <style>
      .cls-1 {
        fill: #9b2719;
        fill-rule: evenodd;
      }
    </style>
  </defs>
  <path id="Фигура_11" data-name="Фигура 11" class="cls-1" d="M582.053,5499.77a1.564,1.564,0,1,1-1.563-1.56A1.556,1.556,0,0,1,582.053,5499.77ZM593,5512.79v-6.93a12.72,12.72,0,0,0-11.639-12.83,12.5,12.5,0,0,0-13.352,13.36c0.461,6.62,6.311,11.61,13.61,11.61h6.168A5.212,5.212,0,0,0,593,5512.79Zm-11.781-17.68a10.63,10.63,0,0,1,9.7,10.75v6.93a3.128,3.128,0,0,1-3.128,3.13h-6.168c-6.291,0-11.138-4.07-11.529-9.67a10.421,10.421,0,0,1,9.652-11.14c0.255-.02.509-0.02,0.764-0.02C580.743,5495.09,580.982,5495.09,581.219,5495.11Zm1.356,16.64v-6.25a2.082,2.082,0,0,0-2.085-2.08h-1.043a1.04,1.04,0,1,0,0,2.08h1.043v6.25A1.043,1.043,0,0,0,582.575,5511.75Z" transform="translate(-568 -5493)"/>
</svg>
