<svg xmlns="http://www.w3.org/2000/svg" width="23" height="23" viewBox="0 0 23 23">
  <defs>
    <style>
      .cls-1 {
        fill: #9b2719;
        fill-rule: evenodd;
      }
    </style>
  </defs>
  <path id="Фигура_10" data-name="Фигура 10" class="cls-1" d="M679.1,14410a11.372,11.372,0,0,1-2.464,3.6,11.179,11.179,0,0,1-3.655,2.5,11.583,11.583,0,0,1-8.953,0,11.186,11.186,0,0,1-3.654-2.5,11.365,11.365,0,0,1,0-16.2,11.186,11.186,0,0,1,3.654-2.5,11.583,11.583,0,0,1,8.953,0,11.179,11.179,0,0,1,3.655,2.5A11.5,11.5,0,0,1,679.1,14410Zm-3.677-11.4a9.739,9.739,0,1,0,2.866,6.9A9.542,9.542,0,0,0,675.418,14398.6Zm-8.261,11.1a1.018,1.018,0,0,1-1.212,0l-3.277-3.3a0.844,0.844,0,0,1,0-1.2,1.02,1.02,0,0,1,1.213,0l2.67,2.7,6.568-6.6a1.018,1.018,0,0,1,1.212,0,0.968,0.968,0,0,1,.252.6,0.785,0.785,0,0,1-.252.6Z" transform="translate(-657 -14394)"/>
</svg>
