<svg xmlns="http://www.w3.org/2000/svg" width="24" height="23" viewBox="0 0 24 23">
  <defs>
    <style>
      .cls-1 {
        fill: #9b2719;
        fill-rule: evenodd;
      }
    </style>
  </defs>
  <path id="Фигура_10" data-name="Фигура 10" class="cls-1" d="M412,5501.75v3.88a1,1,0,0,1-2,0v-3.46l-5.294,5.13a1.05,1.05,0,0,1-.706.28,1.02,1.02,0,0,1-.709-0.29,0.948,0.948,0,0,1,0-1.37l5.317-5.14H405a0.975,0.975,0,1,1,0-1.95h4A2.964,2.964,0,0,1,412,5501.75Zm7-4.86v11.66a3.954,3.954,0,0,1-4,3.89h-2.852l-3.847,3.09a2.026,2.026,0,0,1-2.63-.03l-3.748-3.06H399a3.954,3.954,0,0,1-4-3.89v-11.66a3.947,3.947,0,0,1,4-3.89h16A3.947,3.947,0,0,1,419,5496.89Zm-2,0a1.981,1.981,0,0,0-2-1.95H399a1.981,1.981,0,0,0-2,1.95v11.66a1.973,1.973,0,0,0,2,1.94h3.289a1,1,0,0,1,.644.23l4.047,3.32,4.172-3.32a0.991,0.991,0,0,1,.637-0.23H415a1.973,1.973,0,0,0,2-1.94v-11.66Z" transform="translate(-395 -5493)"/>
</svg>
