<svg xmlns="http://www.w3.org/2000/svg" width="40.19" height="40" viewBox="0 0 40.19 40">
  <defs>
    <style>
      .cls-1 {
        fill: #aaadc8;
        fill-rule: evenodd;
      }
    </style>
  </defs>
  <path id="Фигура_11" data-name="Фигура 11" class="cls-1" d="M1487.09,753A20,20,0,1,1,1467,773,20.05,20.05,0,0,1,1487.09,753Zm7.69,11.6-18.03,6.921c-1.23.492-1.22,1.174-.23,1.479l4.63,1.437,10.71-6.725c0.51-.308.97-0.142,0.59,0.194l-8.67,7.794h-0.01l0.01,0-0.32,4.749a1.2,1.2,0,0,0,.93-0.466l2.25-2.175,4.68,3.438a1.019,1.019,0,0,0,1.69-.8l3.07-14.4C1496.4,764.8,1495.6,764.229,1494.78,764.6Z" transform="translate(-1467 -753)"/>
</svg>
