<svg xmlns="http://www.w3.org/2000/svg" width="40.19" height="40" viewBox="0 0 40.19 40">
  <defs>
    <style>
      .cls-1 {
        fill: #aaadc8;
        fill-rule: evenodd;
      }
    </style>
  </defs>
  <path id="Фигура_12" data-name="Фигура 12" class="cls-1" d="M1534.91,753a20,20,0,1,1-20.1,20A20.048,20.048,0,0,1,1534.91,753Zm6.69,21.938c0.68,0.67,1.41,1.3,2.03,2.041a6.166,6.166,0,0,1,.73,1.047,0.749,0.749,0,0,1-.46,1.17l-3.03,0a2.351,2.351,0,0,1-1.93-.781c-0.42-.425-0.8-0.879-1.21-1.319a2.912,2.912,0,0,0-.54-0.482,0.635,0.635,0,0,0-1.01.244,3.127,3.127,0,0,0-.32,1.409,0.8,0.8,0,0,1-.96.929,7.787,7.787,0,0,1-4.34-.929,9.5,9.5,0,0,1-2.91-2.72,36.485,36.485,0,0,1-3.84-6.817c-0.24-.538-0.07-0.826.53-0.837,0.99-.018,1.98-0.017,2.96,0a0.877,0.877,0,0,1,.83.614,18.118,18.118,0,0,0,2.01,3.711,2.978,2.978,0,0,0,.76.831,0.459,0.459,0,0,0,.78-0.229,2.593,2.593,0,0,0,.17-0.778,11.327,11.327,0,0,0-.05-2.729,1.129,1.129,0,0,0-.97-1.04c-0.29-.055-0.24-0.162-0.1-0.327a1.083,1.083,0,0,1,.93-0.461h3.42a0.809,0.809,0,0,1,.73.888v3.789a1.122,1.122,0,0,0,.49.968,0.669,0.669,0,0,0,.68-0.334,11.95,11.95,0,0,0,1.93-2.952c0.23-.466.43-0.95,0.62-1.434a0.73,0.73,0,0,1,.77-0.528l3.3,0a1.7,1.7,0,0,1,.29.017,0.574,0.574,0,0,1,.54.873,8.284,8.284,0,0,1-1.31,2.263c-0.55.758-1.14,1.489-1.69,2.252a1.023,1.023,0,0,0,.17,1.651h0Z" transform="translate(-1514.81 -753)"/>
</svg>
