<svg xmlns="http://www.w3.org/2000/svg" width="30" height="31" viewBox="0 0 30 31">
  <defs>
    <style>
      .cls-1 {
        fill: #fff;
        fill-rule: evenodd;
      }
    </style>
  </defs>
  <path id="Фигура_5" data-name="Фигура 5" class="cls-1" d="M262.938,12351.4l-1.006,5.7a6.482,6.482,0,0,1-6.306,5.3H240.352a3.916,3.916,0,0,0,3.613,2.6h13.382a1.219,1.219,0,0,1,1.282,1.2,1.242,1.242,0,0,1-1.282,1.3H243.965a6.382,6.382,0,0,1-6.363-5.7l-1.764-15.1a1.292,1.292,0,0,0-1.272-1.1h-0.285a1.3,1.3,0,0,1,0-2.6h0.285a3.878,3.878,0,0,1,3.816,3.4l0.054,0.5h20.718a3.78,3.78,0,0,1,2.951,1.4A3.685,3.685,0,0,1,262.938,12351.4Zm-3.784-1.9H238.738l1.206,10.3h15.682a3.818,3.818,0,0,0,3.79-3.2l1.007-5.6a2.016,2.016,0,0,0,.02-0.3A1.228,1.228,0,0,0,259.154,12349.5Zm-17.184,19.3a2.6,2.6,0,1,1-2.563,2.6A2.6,2.6,0,0,1,241.97,12368.8Zm12.815,0a2.6,2.6,0,1,1-2.563,2.6A2.6,2.6,0,0,1,254.785,12368.8Z" transform="translate(-233 -12343)"/>
</svg>
