<svg xmlns="http://www.w3.org/2000/svg" width="28.03" height="21.594" viewBox="0 0 28.03 21.594">
  <defs>
    <style>
      .cls-1 {
        fill: #9b2719;
        fill-rule: evenodd;
      }
    </style>
  </defs>
  <path id="Фигура_14" data-name="Фигура 14" class="cls-1" d="M1472.72,652h-12.09a5.3,5.3,0,0,0-4.22,2.084l-6.19,8.047a1.088,1.088,0,0,0,0,1.325l6.19,8.046a5.294,5.294,0,0,0,4.22,2.084h12.09a5.37,5.37,0,0,0,5.34-5.4V657.4A5.372,5.372,0,0,0,1472.72,652Zm3.21,16.19a3.226,3.226,0,0,1-3.21,3.238h-12.09a3.167,3.167,0,0,1-2.53-1.25l-5.68-7.384,5.68-7.385a3.161,3.161,0,0,1,2.53-1.25h12.09a3.225,3.225,0,0,1,3.21,3.238V668.19Zm-6.34-7.332-1.92,1.936,1.92,1.934a1.1,1.1,0,0,1,.03,1.527,1.06,1.06,0,0,1-1.51.026l-0.03-.026-1.92-1.936-1.91,1.936a1.06,1.06,0,0,1-1.51-.027,1.087,1.087,0,0,1,0-1.5l1.92-1.934-1.92-1.936a1.082,1.082,0,0,1,.03-1.526,1.055,1.055,0,0,1,1.48,0l1.91,1.935,1.92-1.935a1.061,1.061,0,0,1,1.51.026,1.087,1.087,0,0,1,0,1.5h0Z" transform="translate(-1450.03 -652)"/>
</svg>
