<svg xmlns="http://www.w3.org/2000/svg" width="20" height="21" viewBox="0 0 20 21">
  <defs>
    <style>
      .cls-1 {
        fill: #aaadc8;
        fill-rule: evenodd;
      }
    </style>
  </defs>
  <path id="Фигура_20" data-name="Фигура 20" class="cls-1" d="M1232,1609a3.505,3.505,0,1,0,3.7,3.5A3.6,3.6,0,0,0,1232,1609Zm0,5.25a1.753,1.753,0,1,1,1.85-1.75A1.8,1.8,0,0,1,1232,1614.25Zm8.61-.09-0.41-.22a7.748,7.748,0,0,0,0-2.88l0.41-.22a2.56,2.56,0,0,0,1.02-3.59,2.865,2.865,0,0,0-3.8-.96l-0.41.22a8.689,8.689,0,0,0-2.64-1.44v-0.45a2.785,2.785,0,0,0-5.56,0v0.45a8.689,8.689,0,0,0-2.64,1.44l-0.41-.22a2.865,2.865,0,0,0-3.8.96,2.558,2.558,0,0,0,1.02,3.59h0l0.41,0.22a7.747,7.747,0,0,0,0,2.88l-0.41.22a2.56,2.56,0,0,0-1.02,3.59,2.865,2.865,0,0,0,3.8.96h0l0.41-.22a8.689,8.689,0,0,0,2.64,1.44v0.44a2.784,2.784,0,0,0,5.56,0v-0.44a8.689,8.689,0,0,0,2.64-1.44l0.41,0.22a2.865,2.865,0,0,0,3.8-.96,2.558,2.558,0,0,0-1.02-3.59h0Zm-2.36-3.3a5.9,5.9,0,0,1,0,3.28,0.854,0.854,0,0,0,.43.99l1,0.55a0.844,0.844,0,0,1,.34,1.19,0.952,0.952,0,0,1-1.26.33h0l-1.01-.55a0.966,0.966,0,0,0-1.13.14,6.5,6.5,0,0,1-3,1.64,0.872,0.872,0,0,0-.69.85v1.09a0.931,0.931,0,0,1-1.86,0v-1.09a0.882,0.882,0,0,0-.69-0.85,6.681,6.681,0,0,1-3.01-1.64,0.951,0.951,0,0,0-1.12-.15l-1,.55a0.949,0.949,0,0,1-1.27-.31,0.852,0.852,0,0,1,.33-1.2h0.01l1-.55a0.843,0.843,0,0,0,.43-0.99,5.9,5.9,0,0,1,0-3.28,0.849,0.849,0,0,0-.43-0.99l-1-.55a0.853,0.853,0,0,1-.34-1.2,0.959,0.959,0,0,1,1.26-.32l1.01,0.55a0.949,0.949,0,0,0,1.12-.14,6.681,6.681,0,0,1,3.01-1.64,0.872,0.872,0,0,0,.69-0.85v-1.1a0.932,0.932,0,0,1,1.86,0v1.1a0.882,0.882,0,0,0,.69.85,6.681,6.681,0,0,1,3.01,1.64,0.951,0.951,0,0,0,1.12.15l1-.55a0.949,0.949,0,0,1,1.27.31,0.852,0.852,0,0,1-.33,1.2h-0.01l-1,.55a0.854,0.854,0,0,0-.43.99h0Z" transform="translate(-1222 -1602)"/>
</svg>
