<svg xmlns="http://www.w3.org/2000/svg" width="19" height="19" viewBox="0 0 19 19">
  <defs>
    <style>
      .cls-1 {
        fill: #aaadc8;
        fill-rule: evenodd;
      }
    </style>
  </defs>
  <path id="Фигура_18" data-name="Фигура 18" class="cls-1" d="M1242,1578.21a0.8,0.8,0,0,1-.79.79h-17.42a0.79,0.79,0,0,1,0-1.58h17.42A0.792,0.792,0,0,1,1242,1578.21Zm-18.77-11.44a1.931,1.931,0,0,1,.12-2.03,3.771,3.771,0,0,1,1.32-1.19l5.94-3.09a4.133,4.133,0,0,1,3.78,0l5.94,3.09a3.869,3.869,0,0,1,1.32,1.19,1.932,1.932,0,0,1,.12,2.03,2.163,2.163,0,0,1-1.91,1.15h-0.24v6.33h0.8a0.79,0.79,0,0,1,0,1.58h-15.84a0.79,0.79,0,0,1,0-1.58h0.8v-6.33h-0.23A2.167,2.167,0,0,1,1223.23,1566.77Zm3.73,7.48h2.37v-6.33h-2.37v6.33Zm3.96-6.33v6.33h3.16v-6.33h-3.16Zm7.12,0h-2.37v6.33h2.37v-6.33Zm-13.41-1.88a0.579,0.579,0,0,0,.52.29h14.71a0.575,0.575,0,0,0,.51-0.29,0.384,0.384,0,0,0-.02-0.4,2.129,2.129,0,0,0-.75-0.68l-5.94-3.1a2.563,2.563,0,0,0-2.32,0l-5.93,3.1a2.047,2.047,0,0,0-.75.68A0.365,0.365,0,0,0,1224.63,1566.04Z" transform="translate(-1223 -1560)"/>
</svg>
