<svg xmlns="http://www.w3.org/2000/svg" width="20" height="17" viewBox="0 0 20 17">
  <defs>
    <style>
      .cls-1 {
        fill: #aaadc8;
        fill-rule: evenodd;
      }
    </style>
  </defs>
  <path id="Фигура_12" data-name="Фигура 12" class="cls-1" d="M1241.17,2283.52h-0.56a4.318,4.318,0,0,0-.62.05l-5.87-4.28,1.41-1.31a0.788,0.788,0,0,0,.02-1.14,0.865,0.865,0,0,0-1.18-.03l-3.47,3.24a0.825,0.825,0,1,1-1.14-1.19l3.92-3.59a2.6,2.6,0,0,1,2.81-.4l1.93,0.94a4.307,4.307,0,0,0,1.87.43h0.88a0.81,0.81,0,1,0,0-1.62h-0.88a2.524,2.524,0,0,1-1.12-.26l-1.93-.93a4.309,4.309,0,0,0-4.7.67l-0.52.47-0.58-.52a4.226,4.226,0,0,0-2.82-1.05,4.366,4.366,0,0,0-1.86.42l-1.93.94a2.524,2.524,0,0,1-1.12.26h-0.88a0.81,0.81,0,1,0,0,1.62h0.88a4.307,4.307,0,0,0,1.87-.43l1.93-.94a2.658,2.658,0,0,1,2.81.38l0.49,0.43-2.21,2.02a2.441,2.441,0,0,0-.33,3.18,2.727,2.727,0,0,0,2.04,1.02,2.5,2.5,0,0,0,1.75-.7l0.84-.77,5.29,3.85c-0.03.01-5.17,3.76-5.17,3.76a1.725,1.725,0,0,1-2.06-.01l-5.07-3.7a4.31,4.31,0,0,0-2.5-.81h-0.56a0.81,0.81,0,1,0,0,1.62h0.56a2.517,2.517,0,0,1,1.5.49l5.06,3.69a3.454,3.454,0,0,0,2.05.68,3.352,3.352,0,0,0,2.03-.68l5.08-3.69a2.517,2.517,0,0,1,1.5-.49h0.56a0.81,0.81,0,1,0,0-1.62h0Z" transform="translate(-1222 -2273)"/>
</svg>
