<svg xmlns="http://www.w3.org/2000/svg" width="17" height="20" viewBox="0 0 17 20">
  <defs>
    <style>
      .cls-1 {
        fill: #aaadc8;
        fill-rule: evenodd;
      }
    </style>
  </defs>
  <path id="Фигура_23" data-name="Фигура 23" class="cls-1" d="M1238.15,1392h-0.85v10.83a4.211,4.211,0,0,1-4.25,4.17h-5.1a4.211,4.211,0,0,1-4.25-4.17V1392h-0.85a0.835,0.835,0,1,1,0-1.67h2.64a4.219,4.219,0,0,1,4.16-3.33h1.7a4.219,4.219,0,0,1,4.16,3.33h2.64A0.835,0.835,0,1,1,1238.15,1392Zm-6.8-3.33h-1.7a2.549,2.549,0,0,0-2.4,1.66h6.5A2.549,2.549,0,0,0,1231.35,1388.67Zm4.25,3.33h-10.2v10.83a2.525,2.525,0,0,0,2.55,2.5h5.1a2.525,2.525,0,0,0,2.55-2.5V1392Zm-3.4,10a0.839,0.839,0,0,1-.85-0.83v-5a0.85,0.85,0,0,1,1.7,0v5A0.839,0.839,0,0,1,1232.2,1402Zm-3.4,0a0.839,0.839,0,0,1-.85-0.83v-5a0.85,0.85,0,0,1,1.7,0v5A0.839,0.839,0,0,1,1228.8,1402Z" transform="translate(-1222 -1387)"/>
</svg>
