<svg xmlns="http://www.w3.org/2000/svg" width="24" height="23" viewBox="0 0 24 23">
  <defs>
    <style>
      .cls-1 {
        fill: #fff;
        fill-rule: evenodd;
      }
    </style>
  </defs>
  <path id="Фигура_10" data-name="Фигура 10" class="cls-1" d="M1001,4508.75v3.88a1,1,0,0,1-2,0v-3.46l-5.294,5.13a1.05,1.05,0,0,1-.706.28,1.02,1.02,0,0,1-.709-0.29,0.948,0.948,0,0,1,0-1.37l5.317-5.14H994a0.975,0.975,0,1,1,0-1.95h4A2.964,2.964,0,0,1,1001,4508.75Zm7-4.86v11.66a3.951,3.951,0,0,1-4,3.89h-2.85l-3.849,3.09a2.026,2.026,0,0,1-2.63-.03l-3.748-3.06H988a3.954,3.954,0,0,1-4-3.89v-11.66a3.947,3.947,0,0,1,4-3.89h16A3.945,3.945,0,0,1,1008,4503.89Zm-2,0a1.983,1.983,0,0,0-2-1.95H988a1.981,1.981,0,0,0-2,1.95v11.66a1.973,1.973,0,0,0,2,1.94h3.289a1,1,0,0,1,.644.23l4.047,3.32,4.17-3.32a1,1,0,0,1,.64-0.23H1004a1.975,1.975,0,0,0,2-1.94v-11.66Z" transform="translate(-984 -4500)"/>
</svg>
