<svg xmlns="http://www.w3.org/2000/svg" width="20" height="25" viewBox="0 0 20 25">
  <defs>
    <style>
      .cls-1 {
        fill: #3b45a9;
        fill-rule: evenodd;
      }
    </style>
  </defs>
  <path id="Фигура_13" data-name="Фигура 13" class="cls-1" d="M1003.4,4619a2.536,2.536,0,0,1-1.81-.77l-5.59-5.6-5.591,5.61a2.522,2.522,0,0,1-2.814.55,2.561,2.561,0,0,1-1.6-2.4v-17.81a4.562,4.562,0,0,1,4.545-4.58h10.905a4.56,4.56,0,0,1,4.55,4.58v17.81A2.617,2.617,0,0,1,1003.4,4619Zm-12.855-23.17a2.738,2.738,0,0,0-2.727,2.75v17.81a0.763,0.763,0,0,0,.764.77,0.779,0.779,0,0,0,.542-0.22h0l6.24-6.25a0.9,0.9,0,0,1,1.281,0l6.235,6.25a0.752,0.752,0,0,0,1.08-.01,0.773,0.773,0,0,0,.22-0.54v-17.81a2.736,2.736,0,0,0-2.72-2.75H990.545Z" transform="translate(-986 -4594)"/>
</svg>
