<svg xmlns="http://www.w3.org/2000/svg" width="22" height="22" viewBox="0 0 22 22">
  <defs>
    <style>
      .cls-1 {
        fill: #9b2719;
        fill-rule: evenodd;
      }
    </style>
  </defs>
  <path id="Фигура_18" data-name="Фигура 18" class="cls-1" d="M448.25,11955h-16.5a2.742,2.742,0,0,1-2.75-2.8v-3.6a0.917,0.917,0,0,1,1.833,0v3.6a0.933,0.933,0,0,0,.917,1h16.5a0.933,0.933,0,0,0,.917-1v-3.6a0.917,0.917,0,0,1,1.833,0v3.6A2.742,2.742,0,0,1,448.25,11955Zm-6.305-5.4h0a2.7,2.7,0,0,1-3.889,0l-2.944-2.9a0.919,0.919,0,0,1,0-1.3,0.851,0.851,0,0,1,1.3,0l2.667,2.6,0.008-14.1a0.917,0.917,0,0,1,1.834,0l-0.007,14.2,2.682-2.7a0.954,0.954,0,0,1,1.231,0,0.919,0.919,0,0,1,.066,1.3Z" transform="translate(-429 -11933)"/>
</svg>
