<svg xmlns="http://www.w3.org/2000/svg" width="19" height="22" viewBox="0 0 19 22">
  <defs>
    <style>
      .cls-1 {
        fill: #9b2719;
        fill-rule: evenodd;
      }
    </style>
  </defs>
  <path id="Фигура_14" data-name="Фигура 14" class="cls-1" d="M60.25,4453h-9.5a4.67,4.67,0,0,1-4.75-4.58v-5.5a4.591,4.591,0,0,1,2.85-4.2v-1.3a6.654,6.654,0,0,1,13.3,0v1.3a4.59,4.59,0,0,1,2.85,4.2v5.5A4.67,4.67,0,0,1,60.25,4453Zm0-15.58a4.753,4.753,0,0,0-9.5,0v0.91h9.5v-0.91Zm2.85,5.5a2.8,2.8,0,0,0-2.85-2.75h-9.5a2.8,2.8,0,0,0-2.85,2.75v5.5a2.8,2.8,0,0,0,2.85,2.75h9.5a2.8,2.8,0,0,0,2.85-2.75v-5.5Zm-7.6,4.58a0.934,0.934,0,0,1-.95-0.92v-1.83a0.95,0.95,0,0,1,1.9,0v1.83A0.934,0.934,0,0,1,55.5,4447.5Z" transform="translate(-46 -4431)"/>
</svg>
