<svg xmlns="http://www.w3.org/2000/svg" xmlns:xlink="http://www.w3.org/1999/xlink" width="22" height="22" viewBox="0 0 22 22">
  <defs>
    <style>
      .cls-1 {
        fill: #9b2719;
        fill-rule: evenodd;
        filter: url(#filter);
      }
    </style>
    <filter id="filter" x="559" y="2631" width="22" height="22" filterUnits="userSpaceOnUse">
      <feFlood result="flood" flood-color="#3b45a9"/>
      <feComposite result="composite" operator="in" in2="SourceGraphic"/>
      <feBlend result="blend" in2="SourceGraphic"/>
    </filter>
  </defs>
  <path id="Фигура_6" data-name="Фигура 6" class="cls-1" d="M565.416,2643.83a0.917,0.917,0,0,1-.916.92h-0.917a0.915,0.915,0,1,1,0-1.83H564.5A0.915,0.915,0,0,1,565.416,2643.83Zm3.667-.91h-0.916a0.915,0.915,0,1,0,0,1.83h0.916A0.915,0.915,0,1,0,569.083,2642.92Zm-4.583,3.66h-0.917a0.92,0.92,0,0,0,0,1.84H564.5A0.92,0.92,0,0,0,564.5,2646.58Zm4.583,0h-0.916a0.92,0.92,0,0,0,0,1.84h0.916A0.92,0.92,0,0,0,569.083,2646.58Zm-4.583-11h-0.917a0.92,0.92,0,0,0,0,1.84H564.5A0.92,0.92,0,0,0,564.5,2635.58Zm4.583,0h-0.916a0.92,0.92,0,0,0,0,1.84h0.916A0.92,0.92,0,0,0,569.083,2635.58Zm-4.583,3.67h-0.917a0.915,0.915,0,1,0,0,1.83H564.5A0.915,0.915,0,1,0,564.5,2639.25Zm4.583,0h-0.916a0.915,0.915,0,1,0,0,1.83h0.916A0.915,0.915,0,1,0,569.083,2639.25ZM581,2640.17v8.25a4.584,4.584,0,0,1-4.583,4.58H563.583a4.584,4.584,0,0,1-4.583-4.58v-12.84a4.584,4.584,0,0,1,4.583-4.58h5.5a4.585,4.585,0,0,1,4.584,4.58h2.75A4.6,4.6,0,0,1,581,2640.17Zm-17.417,11h8.25v-15.59a2.749,2.749,0,0,0-2.75-2.75h-5.5a2.749,2.749,0,0,0-2.75,2.75v12.84A2.755,2.755,0,0,0,563.583,2651.17Zm15.583-11a2.749,2.749,0,0,0-2.749-2.75h-2.75v13.75h2.75a2.755,2.755,0,0,0,2.749-2.75v-8.25Zm-2.749,2.75a0.915,0.915,0,1,0,.916.91A0.915,0.915,0,0,0,576.417,2642.92Zm0,3.66a0.92,0.92,0,1,0,.916.92A0.917,0.917,0,0,0,576.417,2646.58Zm0-7.33a0.915,0.915,0,1,0,.916.92A0.917,0.917,0,0,0,576.417,2639.25Z" transform="translate(-559 -2631)"/>
</svg>
