<svg xmlns="http://www.w3.org/2000/svg" xmlns:xlink="http://www.w3.org/1999/xlink" width="23" height="23" viewBox="0 0 23 23">
  <defs>
    <style>
      .cls-1 {
        fill: #9b2719;
        fill-rule: evenodd;
        filter: url(#filter);
      }
    </style>
    <filter id="filter" x="397" y="2629" width="23" height="23" filterUnits="userSpaceOnUse">
      <feFlood result="flood" flood-color="#3b45a9"/>
      <feComposite result="composite" operator="in" in2="SourceGraphic"/>
      <feBlend result="blend" in2="SourceGraphic"/>
    </filter>
  </defs>
  <path id="Фигура_7_копия" data-name="Фигура 7 копия" class="cls-1" d="M419.042,2648.17a0.957,0.957,0,0,0-.959.95,1.614,1.614,0,0,1-1.677.96,1.936,1.936,0,0,1-1.527-.66,1.37,1.37,0,0,1,.123-0.17,11.656,11.656,0,0,0,3.025-5.93,2.875,2.875,0,0,0-1.86-3.22v-2.48a3.836,3.836,0,0,0-3.834-3.83v-0.96a3.833,3.833,0,0,0-7.666,0v0.96a3.835,3.835,0,0,0-3.834,3.83v2.47a2.869,2.869,0,0,0-1.89,3.23,11.71,11.71,0,0,0,3.055,5.93,0.939,0.939,0,0,1,.127.18,1.9,1.9,0,0,1-1.531.65,1.631,1.631,0,0,1-1.677-.96,0.959,0.959,0,0,0-1.917,0c0,1.56,1.646,2.88,3.594,2.88a4.016,4.016,0,0,0,2.648-.96,4.117,4.117,0,0,0,5.258.02,4.135,4.135,0,0,0,5.271-.02,4.08,4.08,0,0,0,2.631.96c1.952,0,3.6-1.32,3.6-2.88A0.957,0.957,0,0,0,419.042,2648.17Zm-12.459-15.34a1.917,1.917,0,0,1,3.833,0v0.96h-3.833v-0.96Zm-1.916,2.88h7.666a1.916,1.916,0,0,1,1.917,1.91v1.84l-4.842-1.58a2.811,2.811,0,0,0-1.812,0l-4.846,1.58v-1.84A1.916,1.916,0,0,1,404.667,2635.71Zm1.2,14.37a1.844,1.844,0,0,1-1.639-.81,5.027,5.027,0,0,0-.813-1.32,9.8,9.8,0,0,1-2.579-4.95,0.979,0.979,0,0,1,.635-1.11l6.074-1.98v9.21A1.615,1.615,0,0,1,405.864,2650.08Zm5.271,0a1.632,1.632,0,0,1-1.677-.96v-9.21l6.042,1.98a0.98,0.98,0,0,1,.639,1.11,9.745,9.745,0,0,1-2.551,4.95,4.9,4.9,0,0,0-.813,1.32A1.847,1.847,0,0,1,411.135,2650.08Z" transform="translate(-397 -2629)"/>
</svg>
