<svg xmlns="http://www.w3.org/2000/svg" width="21" height="16" viewBox="0 0 21 16">
  <defs>
    <style>
      .cls-1 {
        fill: #9497b3;
        fill-rule: evenodd;
      }
    </style>
  </defs>
  <path id="Фигура_5" data-name="Фигура 5" class="cls-1" d="M542.358,6048.21a11.288,11.288,0,0,1-19.717,0,4.129,4.129,0,0,1,0-4.42,11.288,11.288,0,0,1,19.717,0A4.125,4.125,0,0,1,542.358,6048.21Zm-1.491-3.52a9.519,9.519,0,0,0-16.734,0,2.443,2.443,0,0,0,0,2.62,9.519,9.519,0,0,0,16.734,0A2.443,2.443,0,0,0,540.867,6044.69Zm-8.367,5.59a4.281,4.281,0,1,1,4.373-4.28A4.33,4.33,0,0,1,532.5,6050.28Zm0-6.85a2.571,2.571,0,1,0,2.624,2.57A2.6,2.6,0,0,0,532.5,6043.43Z" transform="translate(-522 -6038)"/>
</svg>
