<svg xmlns="http://www.w3.org/2000/svg" width="18" height="18" viewBox="0 0 18 18">
  <defs>
    <style>
      .cls-1 {
        fill: #aaadc8;
        fill-rule: evenodd;
      }
    </style>
  </defs>
  <path id="Фигура_15" data-name="Фигура 15" class="cls-1" d="M1239.25,1317a0.755,0.755,0,0,0-.75.75,1.258,1.258,0,0,1-1.31.75,1.49,1.49,0,0,1-1.2-.52,1.132,1.132,0,0,1,.1-0.13,9.26,9.26,0,0,0,2.37-4.64,2.251,2.251,0,0,0-1.46-2.52v-1.94a3,3,0,0,0-3-3V1305a3,3,0,0,0-6,0v0.75a3,3,0,0,0-3,3v1.93a2.25,2.25,0,0,0-1.48,2.53,9.214,9.214,0,0,0,2.39,4.64,0.71,0.71,0,0,1,.1.14,1.513,1.513,0,0,1-1.2.51,1.286,1.286,0,0,1-1.31-.75,0.75,0.75,0,0,0-1.5,0,2.614,2.614,0,0,0,2.81,2.25,3.121,3.121,0,0,0,2.07-.75,848.725,848.725,0,0,0,8.24,0,3.186,3.186,0,0,0,2.06.75,2.618,2.618,0,0,0,2.82-2.25A0.755,0.755,0,0,0,1239.25,1317Zm-9.75-12a1.5,1.5,0,0,1,3,0v0.75h-3V1305Zm-1.5,2.25h6a1.5,1.5,0,0,1,1.5,1.5v1.44l-3.79-1.24a2.16,2.16,0,0,0-1.42,0l-3.79,1.23v-1.43A1.5,1.5,0,0,1,1228,1307.25Zm0.94,11.25a1.451,1.451,0,0,1-1.29-.64,3.906,3.906,0,0,0-.63-1.03,7.6,7.6,0,0,1-2.02-3.87,0.768,0.768,0,0,1,.5-0.87l4.75-1.55v7.21A1.258,1.258,0,0,1,1228.94,1318.5Zm4.12,0a1.286,1.286,0,0,1-1.31-.75v-7.21l4.73,1.55a0.762,0.762,0,0,1,.5.87,7.681,7.681,0,0,1-2,3.87,3.574,3.574,0,0,0-.63,1.04A1.465,1.465,0,0,1,1233.06,1318.5Z" transform="translate(-1222 -1302)"/>
</svg>
