<svg xmlns="http://www.w3.org/2000/svg" width="17" height="21" viewBox="0 0 17 21">
  <defs>
    <style>
      .cls-1 {
        fill: #aaadc8;
        fill-rule: evenodd;
      }
    </style>
  </defs>
  <path id="Фигура_21" data-name="Фигура 21" class="cls-1" d="M1230,1664.25h-1.71a2.61,2.61,0,0,1-2.58-2.63v-12.25a2.608,2.608,0,0,1,2.58-2.62H1230a0.875,0.875,0,0,0,0-1.75h-1.71a4.332,4.332,0,0,0-4.29,4.37v12.25a4.335,4.335,0,0,0,4.29,4.38H1230A0.875,0.875,0,0,0,1230,1664.25Zm-1.87-9.65h0l10.91,0.03a1.748,1.748,0,0,0-.28-0.39l-3.32-3.39a0.891,0.891,0,0,1-.02-1.24,0.854,0.854,0,0,1,1.21-.02,0.022,0.022,0,0,0,.02.02l3.32,3.4a3.538,3.538,0,0,1,0,4.94l-3.32,3.39a0.846,0.846,0,0,1-1.21.03,0.891,0.891,0,0,1-.02-1.24,0.022,0.022,0,0,1,.02-0.02l3.32-3.39a1.655,1.655,0,0,0,.25-0.34l-10.88-.03a0.869,0.869,0,0,1-.86-0.87A0.877,0.877,0,0,1,1228.13,1654.6Z" transform="translate(-1224 -1645)"/>
</svg>
