<svg xmlns="http://www.w3.org/2000/svg" width="17" height="16" viewBox="0 0 17 16">
  <defs>
    <style>
      .cls-1 {
        fill: #aaadc8;
        fill-rule: evenodd;
      }
    </style>
  </defs>
  <path id="Фигура_24" data-name="Фигура 24" class="cls-1" d="M1233.33,1269.18a0.717,0.717,0,0,1-.71.73h-1.41v1.45a0.71,0.71,0,1,1-1.42,0v-1.45h-1.42a0.731,0.731,0,0,1,0-1.46h1.42V1267a0.71,0.71,0,1,1,1.42,0v1.45h1.41A0.717,0.717,0,0,1,1233.33,1269.18Zm5.67-5.09v7.27a3.6,3.6,0,0,1-3.54,3.64h-9.92a3.6,3.6,0,0,1-3.54-3.64v-8.72a3.6,3.6,0,0,1,3.54-3.64h1.79a2.081,2.081,0,0,1,.95.23l2.24,1.15a0.67,0.67,0,0,0,.31.07h4.63A3.6,3.6,0,0,1,1239,1264.09Zm-15.58-1.45v0.72h14.03a2.111,2.111,0,0,0-1.99-1.45h-4.63a2.112,2.112,0,0,1-.95-0.23l-2.23-1.15a0.722,0.722,0,0,0-.32-0.08h-1.79A2.156,2.156,0,0,0,1223.42,1262.64Zm14.16,8.72v-6.54h-14.16v6.54a2.156,2.156,0,0,0,2.12,2.19h9.92A2.156,2.156,0,0,0,1237.58,1271.36Z" transform="translate(-1222 -1259)"/>
</svg>
