<svg xmlns="http://www.w3.org/2000/svg" width="15" height="19" viewBox="0 0 15 19">
  <defs>
    <style>
      .cls-1 {
        fill: #aaadc8;
        fill-rule: evenodd;
      }
    </style>
  </defs>
  <path id="Фигура_19" data-name="Фигура 19" class="cls-1" d="M1234.25,1356.08a0.771,0.771,0,0,1-.75.79h-6a0.791,0.791,0,0,1,0-1.58h6A0.778,0.778,0,0,1,1234.25,1356.08Zm-3,2.38h-3.75a0.791,0.791,0,0,0,0,1.58h3.75A0.791,0.791,0,0,0,1231.25,1358.46Zm6.75-5.16v6.74a3.858,3.858,0,0,1-3.75,3.96h-7.5a3.858,3.858,0,0,1-3.75-3.96v-11.08a3.858,3.858,0,0,1,3.75-3.96h3.39a5.1,5.1,0,0,1,3.71,1.62l2.61,2.76A5.683,5.683,0,0,1,1238,1353.3Zm-5.21-5.56a3.928,3.928,0,0,0-.79-0.62v3.42a0.771,0.771,0,0,0,.75.79h3.24a4.034,4.034,0,0,0-.59-0.83Zm3.71,5.56a2.328,2.328,0,0,0-.04-0.38h-3.71a2.322,2.322,0,0,1-2.25-2.38v-3.92c-0.12-.01-0.24-0.04-0.36-0.04h-3.39a2.322,2.322,0,0,0-2.25,2.38v11.08a2.322,2.322,0,0,0,2.25,2.38h7.5a2.322,2.322,0,0,0,2.25-2.38v-6.74Z" transform="translate(-1223 -1345)"/>
</svg>
