<svg xmlns="http://www.w3.org/2000/svg" width="19" height="19" viewBox="0 0 19 19">
  <defs>
    <style>
      .cls-1 {
        fill: #aaadc8;
        fill-rule: evenodd;
      }
    </style>
  </defs>
  <path id="Фигура_16" data-name="Фигура 16" class="cls-1" d="M1240.87,1437.04a2.517,2.517,0,0,0-2.43-1.82h-3.46l-1.05-3.39a2.542,2.542,0,0,0-3.22-1.7,2.594,2.594,0,0,0-1.65,1.7l-1.05,3.39h-3.46a2.594,2.594,0,0,0-2.55,2.64,2.672,2.672,0,0,0,1.05,2.13l2.81,2.12-1.07,3.43a2.65,2.65,0,0,0,.94,2.95,2.461,2.461,0,0,0,3.01-.01l2.75-2.1,2.76,2.09a2.488,2.488,0,0,0,3.57-.56,2.7,2.7,0,0,0,.38-2.37l-1.07-3.43,2.82-2.12A2.666,2.666,0,0,0,1240.87,1437.04Zm-1.86,1.63-3.28,2.47a0.848,0.848,0,0,0-.29.92l1.25,3.98a1,1,0,0,1-.63,1.26,0.916,0.916,0,0,1-.87-0.15l-3.23-2.45a0.765,0.765,0,0,0-.93,0l-3.23,2.45a0.947,0.947,0,0,1-1.36-.2,1.016,1.016,0,0,1-.14-0.91l1.25-3.98a0.848,0.848,0,0,0-.29-0.92l-3.28-2.47a1.034,1.034,0,0,1-.21-1.41,0.971,0.971,0,0,1,.78-0.41h4.04a0.789,0.789,0,0,0,.75-0.57l1.23-3.95a0.967,0.967,0,0,1,1.22-.64,1,1,0,0,1,.63.64l1.23,3.95a0.789,0.789,0,0,0,.75.57h4.04a0.986,0.986,0,0,1,.97,1.01,1.018,1.018,0,0,1-.4.81h0Z" transform="translate(-1222 -1430)"/>
</svg>
