<svg xmlns="http://www.w3.org/2000/svg" width="18" height="18" viewBox="0 0 18 18">
  <defs>
    <style>
      .cls-1 {
        fill: #aaadc8;
        fill-rule: evenodd;
      }
    </style>
  </defs>
  <path id="Фигура_17" data-name="Фигура 17" class="cls-1" d="M1240.25,1490.5h-13.5a2.253,2.253,0,0,1-2.25-2.25v-13.5a0.75,0.75,0,0,0-1.5,0v13.5a3.751,3.751,0,0,0,3.75,3.75h13.5A0.75,0.75,0,0,0,1240.25,1490.5Zm-12.75-1.5a0.755,0.755,0,0,0,.75-0.75V1483a0.75,0.75,0,0,0-1.5,0v5.25A0.755,0.755,0,0,0,1227.5,1489Zm3-7.5v6.75a0.75,0.75,0,0,0,1.5,0v-6.75A0.75,0.75,0,0,0,1230.5,1481.5Zm3.75,2.25v4.5a0.75,0.75,0,0,0,1.5,0v-4.5A0.75,0.75,0,0,0,1234.25,1483.75Zm3.75-3v7.5a0.75,0.75,0,0,0,1.5,0v-7.5A0.75,0.75,0,0,0,1238,1480.75Zm-10.5,0a0.749,0.749,0,0,0,.53-0.22l2.69-2.69a0.774,0.774,0,0,1,1.06,0l1.63,1.63a2.245,2.245,0,0,0,3.18,0l4.19-4.19a0.75,0.75,0,0,0-1.06-1.06l-4.19,4.19a0.754,0.754,0,0,1-1.06,0l-1.63-1.63a2.245,2.245,0,0,0-3.18,0l-2.69,2.69A0.75,0.75,0,0,0,1227.5,1480.75Z" transform="translate(-1223 -1474)"/>
</svg>
