<svg xmlns="http://www.w3.org/2000/svg" width="20" height="15" viewBox="0 0 20 15">
  <defs>
    <style>
      .cls-1 {
        fill: #aaadc8;
        fill-rule: evenodd;
      }
    </style>
  </defs>
  <path id="Фигура_13" data-name="Фигура 13" class="cls-1" d="M1222,2148.75v5.2a4.111,4.111,0,0,0,4.17,4.05h11.66a4.111,4.111,0,0,0,4.17-4.05v-5.2c0-2.24-1.67-1.35-1.67,0v5.2a2.468,2.468,0,0,1-2.5,2.43h-11.66a2.468,2.468,0,0,1-2.5-2.43v-5.2C1223.67,2147.4,1222,2146.51,1222,2148.75Zm10-.64a2.521,2.521,0,0,1,1.66.61c0.27,0.23.53,0.46,0.7,0.63l2.39,2.28a0.8,0.8,0,0,1,.06,1.15,0.846,0.846,0,0,1-1.18.05c-0.02-.01-0.03-0.03-0.05-0.04l-2.4-2.29c-0.15-.15-0.39-0.36-0.63-0.57a0.848,0.848,0,0,0-1.1,0c-0.24.21-.48,0.41-0.63,0.56l-2.4,2.3a0.856,0.856,0,0,1-1.18-.06,0.794,0.794,0,0,1,.01-1.1l2.4-2.29c0.16-.16.42-0.39,0.69-0.62A2.521,2.521,0,0,1,1232,2148.11Zm0-5.12a2.574,2.574,0,0,1,1.66.61c0.27,0.23.53,0.46,0.7,0.63l2.39,2.29a0.79,0.79,0,0,1,.06,1.14,0.856,0.856,0,0,1-1.18.06l-0.05-.05-2.4-2.29c-0.15-.15-0.39-0.36-0.63-0.57a0.848,0.848,0,0,0-1.1,0c-0.24.21-.48,0.42-0.63,0.56l-2.4,2.3a0.846,0.846,0,0,1-1.18-.06,0.782,0.782,0,0,1,.01-1.09l2.4-2.3c0.16-.16.42-0.38,0.69-0.62A2.574,2.574,0,0,1,1232,2142.99Z" transform="translate(-1222 -2143)"/>
</svg>
