<svg xmlns="http://www.w3.org/2000/svg" width="27" height="27" viewBox="0 0 27 27">
  <defs>
    <style>
      .cls-1 {
        fill: #40b77b;
        fill-rule: evenodd;
      }
    </style>
  </defs>
  <path id="Фигура_70_1" data-name="Фигура 70 1" class="cls-1" d="M1346.44,7956.25a13.5,13.5,0,0,1-24.88,0,13.556,13.556,0,0,1,0-10.51,13.514,13.514,0,0,1,7.18-7.18,13.581,13.581,0,0,1,10.52,0,13.514,13.514,0,0,1,7.18,7.18A13.556,13.556,0,0,1,1346.44,7956.25Zm-4.32-13.37a11.468,11.468,0,1,0,3.37,8.12A11.407,11.407,0,0,0,1342.12,7942.88Zm-9.7,13.04a0.99,0.99,0,0,1-1.42,0l-3.85-3.84a1.005,1.005,0,0,1,.72-1.72,1.007,1.007,0,0,1,.71.29l3.13,3.14,7.71-7.71a1,1,0,0,1,.71-0.3,1.022,1.022,0,0,1,.72.3,1.014,1.014,0,0,1,0,1.42Z" transform="translate(-1320.5 -7937.5)"/>
</svg>
