<svg xmlns="http://www.w3.org/2000/svg" width="26.88" height="26.9" viewBox="0 0 26.88 26.9">
  <defs>
    <style>
      .cls-1 {
        fill: #9b2719;
        fill-rule: evenodd;
      }
    </style>
  </defs>
  <path id="Фигура_69_1" data-name="Фигура 69 1" class="cls-1" d="M1316.65,10385.7a13.821,13.821,0,0,1-7.15,7.1,12.983,12.983,0,0,1-10.46,0,12.743,12.743,0,0,1-4.27-2.9,12.546,12.546,0,0,1-2.88-4.2,13.53,13.53,0,0,1,0-10.5,14.057,14.057,0,0,1,2.88-4.3,12.466,12.466,0,0,1,4.27-2.8,12.983,12.983,0,0,1,10.46,0,12.466,12.466,0,0,1,4.27,2.8,14.426,14.426,0,0,1,2.88,4.3A13.649,13.649,0,0,1,1316.65,10385.7Zm-4.3-13.3a11.347,11.347,0,1,0,3.35,8A11.24,11.24,0,0,0,1312.35,10372.4Zm-2.79,12.3a0.935,0.935,0,0,1-.29.7,0.99,0.99,0,0,1-1.42,0l-3.58-3.5-3.59,3.5a0.938,0.938,0,0,1-.7.3,0.96,0.96,0,0,1-.71-0.3,0.943,0.943,0,0,1-.3-0.7,1.134,1.134,0,0,1,.3-0.7l3.58-3.6-3.58-3.5a1.108,1.108,0,0,1,0-1.5,0.96,0.96,0,0,1,.71-0.3,0.938,0.938,0,0,1,.7.3l3.59,3.6,3.58-3.6a0.99,0.99,0,0,1,1.42,0,1.118,1.118,0,0,1,.29.7,1.174,1.174,0,0,1-.29.8l-3.59,3.5,3.59,3.6A1.118,1.118,0,0,1,1309.56,10384.7Z" transform="translate(-1290.84 -10367)"/>
</svg>
